<mxfile host="app.diagrams.net" modified="2023-03-21T04:46:37.712Z" agent="5.0 (Windows NT 10.0; Win64; x64) AppleWebKit/537.36 (KHTML, like Gecko) Chrome/111.0.0.0 Safari/537.36" etag="C-g3bGzqsLAqg30xYoOq" version="21.0.8" type="github">
  <diagram name="Страница 1" id="KYWS3vTyNhhRMhFngleJ">
    <mxGraphModel dx="1674" dy="739" grid="1" gridSize="10" guides="1" tooltips="1" connect="1" arrows="1" fold="1" page="1" pageScale="1" pageWidth="827" pageHeight="1169" math="0" shadow="0">
      <root>
        <mxCell id="0" />
        <mxCell id="1" parent="0" />
        <mxCell id="Ojjre2xDDVM9wDfy4lC1-30" style="edgeStyle=orthogonalEdgeStyle;rounded=0;orthogonalLoop=1;jettySize=auto;html=1;entryX=0;entryY=0.5;entryDx=0;entryDy=0;" edge="1" parent="1" source="Ojjre2xDDVM9wDfy4lC1-31" target="Ojjre2xDDVM9wDfy4lC1-38">
          <mxGeometry relative="1" as="geometry" />
        </mxCell>
        <mxCell id="Ojjre2xDDVM9wDfy4lC1-31" value="Выбор блюд&lt;br&gt;&lt;font&gt;и напитков&lt;/font&gt;" style="rounded=0;whiteSpace=wrap;html=1;" vertex="1" parent="1">
          <mxGeometry x="150" y="290" width="120" height="60" as="geometry" />
        </mxCell>
        <mxCell id="Ojjre2xDDVM9wDfy4lC1-32" style="edgeStyle=orthogonalEdgeStyle;rounded=0;orthogonalLoop=1;jettySize=auto;html=1;entryX=0.5;entryY=1;entryDx=0;entryDy=0;" edge="1" parent="1" target="Ojjre2xDDVM9wDfy4lC1-31">
          <mxGeometry relative="1" as="geometry">
            <mxPoint x="210" y="630" as="sourcePoint" />
            <Array as="points">
              <mxPoint x="210" y="600" />
              <mxPoint x="210" y="600" />
            </Array>
          </mxGeometry>
        </mxCell>
        <mxCell id="Ojjre2xDDVM9wDfy4lC1-33" style="edgeStyle=orthogonalEdgeStyle;rounded=0;orthogonalLoop=1;jettySize=auto;html=1;entryX=0.5;entryY=1;entryDx=0;entryDy=0;" edge="1" parent="1" target="Ojjre2xDDVM9wDfy4lC1-38">
          <mxGeometry relative="1" as="geometry">
            <mxPoint x="390" y="480" as="sourcePoint" />
          </mxGeometry>
        </mxCell>
        <mxCell id="Ojjre2xDDVM9wDfy4lC1-34" value="клиент" style="text;strokeColor=none;fillColor=none;align=left;verticalAlign=middle;spacingLeft=4;spacingRight=4;overflow=hidden;points=[[0,0.5],[1,0.5]];portConstraint=eastwest;rotatable=0;whiteSpace=wrap;html=1;" vertex="1" parent="1">
          <mxGeometry x="190" y="630" width="50" height="30" as="geometry" />
        </mxCell>
        <mxCell id="Ojjre2xDDVM9wDfy4lC1-35" style="edgeStyle=orthogonalEdgeStyle;rounded=0;orthogonalLoop=1;jettySize=auto;html=1;entryX=0.5;entryY=0;entryDx=0;entryDy=0;" edge="1" parent="1" target="Ojjre2xDDVM9wDfy4lC1-31">
          <mxGeometry relative="1" as="geometry">
            <Array as="points">
              <mxPoint x="210" y="170" />
              <mxPoint x="210" y="170" />
            </Array>
            <mxPoint x="210" y="160" as="sourcePoint" />
          </mxGeometry>
        </mxCell>
        <mxCell id="Ojjre2xDDVM9wDfy4lC1-36" value="меню" style="text;strokeColor=none;fillColor=none;align=left;verticalAlign=middle;spacingLeft=4;spacingRight=4;overflow=hidden;points=[[0,0.5],[1,0.5]];portConstraint=eastwest;rotatable=0;whiteSpace=wrap;html=1;" vertex="1" parent="1">
          <mxGeometry x="190" y="130" width="80" height="30" as="geometry" />
        </mxCell>
        <mxCell id="Ojjre2xDDVM9wDfy4lC1-37" style="edgeStyle=orthogonalEdgeStyle;rounded=0;orthogonalLoop=1;jettySize=auto;html=1;exitX=1;exitY=0.5;exitDx=0;exitDy=0;entryX=0;entryY=0.5;entryDx=0;entryDy=0;" edge="1" parent="1" source="Ojjre2xDDVM9wDfy4lC1-38" target="Ojjre2xDDVM9wDfy4lC1-42">
          <mxGeometry relative="1" as="geometry" />
        </mxCell>
        <mxCell id="Ojjre2xDDVM9wDfy4lC1-38" value="Оплата заказа" style="rounded=0;whiteSpace=wrap;html=1;" vertex="1" parent="1">
          <mxGeometry x="330" y="340" width="120" height="60" as="geometry" />
        </mxCell>
        <mxCell id="Ojjre2xDDVM9wDfy4lC1-39" value="предпочтения&amp;nbsp;&lt;br&gt;&lt;font&gt;клиента&lt;/font&gt;" style="text;strokeColor=none;fillColor=none;align=left;verticalAlign=middle;spacingLeft=4;spacingRight=4;overflow=hidden;points=[[0,0.5],[1,0.5]];portConstraint=eastwest;rotatable=0;whiteSpace=wrap;html=1;" vertex="1" parent="1">
          <mxGeometry x="270" y="290" width="90" height="30" as="geometry" />
        </mxCell>
        <mxCell id="Ojjre2xDDVM9wDfy4lC1-40" style="edgeStyle=orthogonalEdgeStyle;rounded=0;orthogonalLoop=1;jettySize=auto;html=1;" edge="1" parent="1" target="Ojjre2xDDVM9wDfy4lC1-38">
          <mxGeometry relative="1" as="geometry">
            <Array as="points">
              <mxPoint x="110" y="640" />
              <mxPoint x="110" y="120" />
              <mxPoint x="390" y="120" />
            </Array>
            <mxPoint x="180" y="640" as="sourcePoint" />
          </mxGeometry>
        </mxCell>
        <mxCell id="Ojjre2xDDVM9wDfy4lC1-41" style="edgeStyle=orthogonalEdgeStyle;rounded=0;orthogonalLoop=1;jettySize=auto;html=1;entryX=0;entryY=0.5;entryDx=0;entryDy=0;" edge="1" parent="1" source="Ojjre2xDDVM9wDfy4lC1-42" target="Ojjre2xDDVM9wDfy4lC1-51">
          <mxGeometry relative="1" as="geometry" />
        </mxCell>
        <mxCell id="Ojjre2xDDVM9wDfy4lC1-42" value="&lt;font&gt;Приготовление&amp;nbsp;&lt;br&gt;&lt;span style=&quot;color: rgb(0, 0, 0); font-family: Helvetica; font-size: 12px; font-style: normal; font-variant-ligatures: normal; font-variant-caps: normal; font-weight: 400; letter-spacing: normal; orphans: 2; text-align: center; text-indent: 0px; text-transform: none; widows: 2; word-spacing: 0px; -webkit-text-stroke-width: 0px; background-color: rgb(251, 251, 251); text-decoration-thickness: initial; text-decoration-style: initial; text-decoration-color: initial; float: none; display: inline !important;&quot;&gt;заказа&lt;/span&gt;&lt;/font&gt;" style="rounded=0;whiteSpace=wrap;html=1;" vertex="1" parent="1">
          <mxGeometry x="500" y="390" width="120" height="60" as="geometry" />
        </mxCell>
        <mxCell id="Ojjre2xDDVM9wDfy4lC1-43" value="Оплаченный заказ" style="text;strokeColor=none;fillColor=none;align=left;verticalAlign=middle;spacingLeft=4;spacingRight=4;overflow=hidden;points=[[0,0.5],[1,0.5]];portConstraint=eastwest;rotatable=0;whiteSpace=wrap;html=1;" vertex="1" parent="1">
          <mxGeometry x="454" y="340" width="80" height="30" as="geometry" />
        </mxCell>
        <mxCell id="Ojjre2xDDVM9wDfy4lC1-44" style="edgeStyle=orthogonalEdgeStyle;rounded=0;orthogonalLoop=1;jettySize=auto;html=1;entryX=0.358;entryY=1.033;entryDx=0;entryDy=0;entryPerimeter=0;" edge="1" parent="1" source="Ojjre2xDDVM9wDfy4lC1-45" target="Ojjre2xDDVM9wDfy4lC1-42">
          <mxGeometry relative="1" as="geometry" />
        </mxCell>
        <mxCell id="Ojjre2xDDVM9wDfy4lC1-45" value="Бариста" style="text;strokeColor=none;fillColor=none;align=left;verticalAlign=middle;spacingLeft=4;spacingRight=4;overflow=hidden;points=[[0,0.5],[1,0.5]];portConstraint=eastwest;rotatable=0;whiteSpace=wrap;html=1;" vertex="1" parent="1">
          <mxGeometry x="450" y="550" width="60" height="30" as="geometry" />
        </mxCell>
        <mxCell id="Ojjre2xDDVM9wDfy4lC1-46" style="edgeStyle=orthogonalEdgeStyle;rounded=0;orthogonalLoop=1;jettySize=auto;html=1;entryX=0.667;entryY=1;entryDx=0;entryDy=0;entryPerimeter=0;" edge="1" parent="1" source="Ojjre2xDDVM9wDfy4lC1-47" target="Ojjre2xDDVM9wDfy4lC1-42">
          <mxGeometry relative="1" as="geometry" />
        </mxCell>
        <mxCell id="Ojjre2xDDVM9wDfy4lC1-47" value="Повар" style="text;strokeColor=none;fillColor=none;align=left;verticalAlign=middle;spacingLeft=4;spacingRight=4;overflow=hidden;points=[[0,0.5],[1,0.5]];portConstraint=eastwest;rotatable=0;whiteSpace=wrap;html=1;" vertex="1" parent="1">
          <mxGeometry x="600" y="550" width="80" height="30" as="geometry" />
        </mxCell>
        <mxCell id="Ojjre2xDDVM9wDfy4lC1-48" style="edgeStyle=orthogonalEdgeStyle;rounded=0;orthogonalLoop=1;jettySize=auto;html=1;entryX=0.608;entryY=-0.05;entryDx=0;entryDy=0;entryPerimeter=0;" edge="1" parent="1" source="Ojjre2xDDVM9wDfy4lC1-49" target="Ojjre2xDDVM9wDfy4lC1-42">
          <mxGeometry relative="1" as="geometry">
            <Array as="points">
              <mxPoint x="573" y="230" />
              <mxPoint x="573" y="230" />
            </Array>
          </mxGeometry>
        </mxCell>
        <mxCell id="Ojjre2xDDVM9wDfy4lC1-49" value="&amp;nbsp;терминал" style="text;strokeColor=none;fillColor=none;align=left;verticalAlign=middle;spacingLeft=4;spacingRight=4;overflow=hidden;points=[[0,0.5],[1,0.5]];portConstraint=eastwest;rotatable=0;whiteSpace=wrap;html=1;" vertex="1" parent="1">
          <mxGeometry x="540" y="160" width="80" height="30" as="geometry" />
        </mxCell>
        <mxCell id="Ojjre2xDDVM9wDfy4lC1-50" style="edgeStyle=orthogonalEdgeStyle;rounded=0;orthogonalLoop=1;jettySize=auto;html=1;" edge="1" parent="1" source="Ojjre2xDDVM9wDfy4lC1-51">
          <mxGeometry relative="1" as="geometry">
            <mxPoint x="250" y="650" as="targetPoint" />
            <Array as="points">
              <mxPoint x="870" y="480" />
              <mxPoint x="870" y="650" />
            </Array>
          </mxGeometry>
        </mxCell>
        <mxCell id="Ojjre2xDDVM9wDfy4lC1-51" value="Выдача заказа" style="rounded=0;whiteSpace=wrap;html=1;" vertex="1" parent="1">
          <mxGeometry x="700" y="450" width="120" height="60" as="geometry" />
        </mxCell>
        <mxCell id="Ojjre2xDDVM9wDfy4lC1-52" value="уведомление о готовности заказа" style="text;strokeColor=none;fillColor=none;align=left;verticalAlign=middle;spacingLeft=4;spacingRight=4;overflow=hidden;points=[[0,0.5],[1,0.5]];portConstraint=eastwest;rotatable=0;whiteSpace=wrap;html=1;" vertex="1" parent="1">
          <mxGeometry x="620" y="390" width="100" height="30" as="geometry" />
        </mxCell>
        <mxCell id="Ojjre2xDDVM9wDfy4lC1-53" style="edgeStyle=orthogonalEdgeStyle;rounded=0;orthogonalLoop=1;jettySize=auto;html=1;entryX=0.5;entryY=1;entryDx=0;entryDy=0;" edge="1" parent="1" target="Ojjre2xDDVM9wDfy4lC1-51">
          <mxGeometry relative="1" as="geometry">
            <Array as="points">
              <mxPoint x="760" y="560" />
            </Array>
            <mxPoint x="760" y="570" as="sourcePoint" />
          </mxGeometry>
        </mxCell>
        <mxCell id="Ojjre2xDDVM9wDfy4lC1-54" value="официант" style="text;strokeColor=none;fillColor=none;align=left;verticalAlign=middle;spacingLeft=4;spacingRight=4;overflow=hidden;points=[[0,0.5],[1,0.5]];portConstraint=eastwest;rotatable=0;whiteSpace=wrap;html=1;" vertex="1" parent="1">
          <mxGeometry x="720" y="260" width="80" height="30" as="geometry" />
        </mxCell>
        <mxCell id="Ojjre2xDDVM9wDfy4lC1-55" style="edgeStyle=orthogonalEdgeStyle;rounded=0;orthogonalLoop=1;jettySize=auto;html=1;entryX=0.5;entryY=0;entryDx=0;entryDy=0;" edge="1" parent="1" target="Ojjre2xDDVM9wDfy4lC1-51">
          <mxGeometry relative="1" as="geometry">
            <Array as="points">
              <mxPoint x="760" y="330" />
              <mxPoint x="760" y="330" />
            </Array>
            <mxPoint x="760" y="300" as="sourcePoint" />
          </mxGeometry>
        </mxCell>
        <mxCell id="Ojjre2xDDVM9wDfy4lC1-56" value="номер столика" style="text;strokeColor=none;fillColor=none;align=left;verticalAlign=middle;spacingLeft=4;spacingRight=4;overflow=hidden;points=[[0,0.5],[1,0.5]];portConstraint=eastwest;rotatable=0;whiteSpace=wrap;html=1;" vertex="1" parent="1">
          <mxGeometry x="730" y="570" width="80" height="30" as="geometry" />
        </mxCell>
        <mxCell id="Ojjre2xDDVM9wDfy4lC1-57" value="заказ" style="text;strokeColor=none;fillColor=none;align=left;verticalAlign=middle;spacingLeft=4;spacingRight=4;overflow=hidden;points=[[0,0.5],[1,0.5]];portConstraint=eastwest;rotatable=0;whiteSpace=wrap;html=1;" vertex="1" parent="1">
          <mxGeometry x="830" y="450" width="80" height="30" as="geometry" />
        </mxCell>
        <mxCell id="Ojjre2xDDVM9wDfy4lC1-58" value="Кассир" style="text;html=1;align=center;verticalAlign=middle;resizable=0;points=[];autosize=1;strokeColor=none;fillColor=none;rotation=0;" vertex="1" parent="1">
          <mxGeometry x="360" y="480" width="60" height="30" as="geometry" />
        </mxCell>
      </root>
    </mxGraphModel>
  </diagram>
</mxfile>
